<?xml version="1.0" encoding="utf-8"?>
<!-- Generator: Adobe Illustrator 22.1.0, SVG Export Plug-In . SVG Version: 6.00 Build 0)  -->
<svg version="1.1" id="Logo" xmlns="http://www.w3.org/2000/svg" xmlns:xlink="http://www.w3.org/1999/xlink" x="0px" y="0px"
	 viewBox="0 0 445.4 105.6" style="enable-background:new 0 0 445.4 105.6;" xml:space="preserve">
<style type="text/css">
	.a2{fill:#60C612;}
	.a1{fill:#01CD01;}
</style>
<g id="innovations">
	<path class="a1" d="M126.2,60.5c0,7.6-11.5,7.6-11.5,0S126.2,53,126.2,60.5z M115.5,69.6v34.7h10.1V69.6H115.5z"/>
	<path class="a1" d="M152.7,104.3V86c0-5.3-2.3-8.1-7.1-8.1s-7.8,4-7.8,8.5v17.8h-9.9V69.7h9.1l0.4,4.4c2.6-3.5,6.8-5.5,11.2-5.3
		c7.8,0,14.4,3.6,14.4,17.1v18.3H152.7z"/>
	<path class="a1" d="M189.5,104.3V86c0-5.3-2.3-8.1-7.1-8.1s-7.8,4-7.8,8.5v17.8h-9.9V69.7h9.1l0.4,4.4c2.6-3.5,6.8-5.5,11.2-5.3
		c7.8,0,14.4,3.6,14.4,17.1v18.3H189.5z"/>
	<path class="a1" d="M199.4,87.1c0-10.4,7.4-18.1,18.9-18.1s19,7.7,19,18.1s-7.2,18-19,18S199.4,97.5,199.4,87.1z M227.1,87.1
		c0-4.3-2.7-9.1-8.8-9.1s-8.7,4.8-8.7,9.1s2.6,9,8.7,9S227.1,91.6,227.1,87.1z"/>
	<path class="a1" d="M252.6,93.8l4.1-11.4l5-12.7H273l-14.9,34.8h-11.1l-14.8-34.8h11.3l5,12.7L252.6,93.8z"/>
	<path class="a1" d="M296.7,69.7h9.5v34.6h-9.1l-0.6-4.3c-2.3,3.6-7.3,5-10.6,5.1C275.5,105.1,268,98.4,268,87s7.9-18.2,18.1-18.1
		c4.3,0,8.4,1.7,10.2,4.8L296.7,69.7z M278.1,87c0,5.7,4.1,9.1,9.1,9.1c4.9,0.2,9-3.7,9.2-8.6c0-0.1,0-0.1,0-0.2
		c0-5-3.1-9.5-9.2-9.5c-4.8-0.2-8.9,3.5-9.1,8.3C278.1,86.4,278.1,86.7,278.1,87z"/>
	<path class="a1" d="M322.1,60.3v9.7h8.8v8.4H322v13c0,3.7,2.1,4.7,4,4.7c1.4,0,2.9-0.3,4.2-0.8l2.3,8.4c-2.3,0.9-4.8,1.5-7.3,1.5
		c-7.5,0.3-13.2-2.9-13.2-13.7v-13h-6.2V70h6.1v-8.6L322.1,60.3z"/>
	<path class="a1" d="M342.2,60.5c0,7.6-11.5,7.6-11.5,0S342.2,53,342.2,60.5z M331.4,69.6v34.7h10.1V69.6H331.4z"/>
	<path class="a1" d="M341.7,87.1c0-10.4,7.4-18.1,18.9-18.1s19,7.7,19,18.1s-7.2,18-19,18S341.7,97.5,341.7,87.1z M369.4,87.1
		c0-4.3-2.7-9.1-8.8-9.1s-8.7,4.8-8.7,9.1s2.6,9,8.7,9S369.4,91.6,369.4,87.1z"/>
	<path class="a1" d="M404.7,104.3V86c0-5.3-2.3-8.1-7.1-8.1s-7.8,4-7.8,8.5v17.8h-9.9V69.7h9.1l0.4,4.4c2.6-3.5,6.8-5.5,11.2-5.3
		c7.8,0,14.4,3.6,14.4,17.1v18.3H404.7z"/>
	<path class="a1" d="M438.4,79.5c-2.4-1.7-5.3-2.6-8.2-2.5c-3.3,0-5,1.2-5,2.9c0,1.9,1.8,2.9,5.1,3c6.8,0.2,15,1.6,15,11.1
		c0.1,5.6-4.1,11.6-15.1,11.6c-6,0.2-11.8-1.9-16.2-5.9l4.3-7.1c3.4,2.8,7.6,4.4,12,4.3c2.9,0.1,5.3-1.1,5.2-2.9
		c0-1.6-1.2-2.9-5.9-3.1c-6.4-0.3-14.5-2.9-14.5-11.1c0-7.8,7.4-11.1,14.9-11.1c5.3,0,9.6,1.3,13.2,4.5L438.4,79.5z"/>
</g>
<g id="adios">
	<path class="a2" d="M143.2,15.9h9.4v34.6h-9.1l-0.6-4.3c-2.3,3.6-7.3,5-10.6,5.1c-10.4,0.1-17.8-6.7-17.8-18.1s7.9-18.2,18.1-18.1
		c4.3,0,8.4,1.7,10.2,4.8L143.2,15.9z M124.6,33.1c0,5.7,4.1,9.1,9.1,9.1c4.9,0.2,9-3.7,9.2-8.6c0-0.1,0-0.1,0-0.2
		c0-5-3.2-9.5-9.2-9.5c-4.8-0.2-8.9,3.5-9.1,8.3C124.6,32.6,124.6,32.9,124.6,33.1z"/>
	<path class="a2" d="M191.2,1.5v48.9h-9l-0.7-4.4c-3.2,4.1-7.1,5-11.5,5c-10.1,0-17.1-7.1-17.1-17.9c0-11.2,7.1-18,17.2-18
		c4.2-0.2,8.2,1.7,10.8,5V1.5H191.2z M163.1,33.1c0,5,3.1,8.9,8.5,8.9c4.6,0,9.3-2.3,9.3-8.9c0-5.8-4.7-8.9-9.3-8.9
		C166.4,24.3,163.1,28,163.1,33.1z"/>
	<path class="a2" d="M204.2,6.7c0,7.6-11.5,7.6-11.5,0S204.2-0.9,204.2,6.7z M193.4,15.8v34.6h10.1V15.8L193.4,15.8z"/>
	<path class="a2" d="M203.7,33.2c0-10.4,7.4-18.1,18.9-18.1s19,7.7,19,18.1s-7.2,18-19,18S203.7,43.6,203.7,33.2z M231.3,33.2
		c0-4.3-2.7-9.1-8.8-9.1s-8.7,4.8-8.7,9.1s2.6,9,8.7,9S231.3,37.8,231.3,33.2L231.3,33.2z"/>
	<path class="a2" d="M263.5,25.7c-2.4-1.7-5.3-2.6-8.2-2.5c-3.3,0-5,1.2-5,2.9c0,1.9,1.8,2.9,5.1,3c6.8,0.2,15,1.6,15,11.1
		c0.1,5.6-4.1,11.6-15.1,11.6c-6,0.2-11.8-1.9-16.2-5.9l4.3-7.1c3.4,2.8,7.6,4.4,12,4.3c2.9,0.1,5.2-1.1,5.2-2.9
		c0-1.6-1.2-2.9-5.9-3.1c-6.4-0.3-14.5-2.9-14.5-11.1c0-7.8,7.4-11.1,14.9-11.1c5.3,0,9.6,1.3,13.2,4.5L263.5,25.7z"/>
</g>
<g id="Art">
	<path class="a1" d="M41.7,20.3c5.4-5.4,14.2-5.4,19.6,0s5.4,14.2,0,19.6s-14.2,5.4-19.6,0c0,0,0,0,0,0
		C36.3,34.5,36.3,25.7,41.7,20.3z"/>
	<path class="a2" d="M12.3,89.8l39.2-39.2l39.2,39.2H12.3z"/>
	<path class="a2" d="M0.1,0.5v102.8h102.8V0.5H0.1z M96.2,96.6H6.8V7.2h89.4V96.6z"/>
</g>
</svg>
